# xmcd CD database file
#
# Track frame offsets:
#	150
#	3221
#	14665
#	30003
#	57936
#	104095
#	144509
#	211225
#
# Disc length: 3818 seconds
#
# Revision: 0
# Processed by: cddbd v1.5.2PL0 Copyright (c) Steve Scherf et al.
# Submitted via: CDex 1.51
#
DISCID=610ee808
DTITLE=Philip Johnston - The Merry Frolics of Satan
DYEAR=1900
DGENRE=Jazz
TTITLE0=Dance of Fire
TTITLE1=The Melomaniac
TTITLE2=The Mermaid
TTITLE3=The Damnation of Faust
TTITLE4=Trip to the Moon
TTITLE5=HydrothMeacuterapie Fantastique
TTITLE6=The Merry Frolics of Satan
TTITLE7=Journey Across the Impossible
EXTD=
EXTT0=
EXTT1=
EXTT2=
EXTT3=
EXTT4=
EXTT5=
EXTT6=
EXTT7=
PLAYORDER=
